<svg width="69" height="25" viewBox="0 0 69 25" fill="none" xmlns="http://www.w3.org/2000/svg">
    <path d="M17.4855 6.61188L19.9109 4.21361L19.3924 3.70088C15.1437 -0.500228 8.23555 -0.500228 3.98692 3.70088C-0.0777038 7.72005 -0.244972 14.1706 3.48512 18.4048L1.043 20.7865L1.56153 21.2992C5.81015 25.5003 12.7183 25.5003 16.967 21.2992C21.0483 17.28 21.2156 10.8295 17.4855 6.61188ZM5.02399 4.74289C8.50318 1.28607 14.0899 1.12067 17.7699 4.23015L16.3815 5.60296C13.4376 3.22123 9.10534 3.38662 6.36214 6.09915C3.61893 8.81168 3.45166 13.112 5.86033 16.0065L4.50546 17.3462C1.36081 13.6909 1.52807 8.18316 5.02399 4.74289ZM15.9132 20.2572C12.4173 23.714 6.84722 23.8794 3.15058 20.7534L4.53891 19.3806C7.48284 21.7623 11.8151 21.5969 14.5583 18.8844C17.3015 16.1719 17.4688 11.8715 15.0601 8.97707L16.415 7.63735C19.5764 11.3092 19.4091 16.8169 15.9132 20.2572Z" fill="white"/>
    <path d="M38.3776 10.1012H40.5521V11.1432C40.5521 11.474 40.5521 11.7552 40.5521 11.7552C41.6561 9.55537 45.336 9.07572 46.1556 11.7386H46.189C46.9417 10.2666 48.7984 9.55537 50.3707 10.035C51.826 10.4816 52.2441 11.9371 52.2441 13.2934V19.0492H49.986V13.7234C49.986 12.7972 49.7351 11.8544 48.5977 11.9371C47.4937 12.0033 46.7912 12.9791 46.557 13.9715C46.4734 14.3188 46.4567 14.7158 46.4567 15.1293V19.0658H44.1818V13.7234C44.1818 12.731 43.8975 11.8048 42.6931 11.9536C41.6226 12.086 40.9703 13.0287 40.7361 13.988C40.6524 14.3188 40.6357 14.7323 40.6357 15.1293V19.0658H38.3776V10.1012Z" fill="white"/>
    <path d="M68.469 17.1641C67.8836 17.1641 67.549 16.916 67.549 15.9401V8.57993V6.59515L65.3076 8.81149V16.2709C65.3076 18.8346 66.8465 19.1489 68.101 19.1489C68.469 19.1489 68.8035 19.0992 68.8035 19.0992V17.1475C68.8035 17.1475 68.6363 17.1641 68.469 17.1641Z" fill="white"/>
    <path d="M62.6482 11.6732C61.862 10.3996 60.4235 9.77108 58.9181 9.91993C57.9646 10.0192 56.9443 10.5154 56.4592 11.3754C56.4592 11.3754 56.4592 11.0943 56.4592 10.7635V10.1184H54.4018V23.3172L56.66 21.0843V18.8349C56.66 18.3718 56.66 18.0575 56.66 18.0575C57.4127 19.1491 58.9181 19.4634 60.1559 19.1988C63.4176 18.4876 64.2205 14.1872 62.6482 11.6732ZM58.8512 17.3959C57.4628 17.3959 56.6934 16.1389 56.6098 14.8984C56.5429 13.8564 56.8272 12.6325 57.8141 12.0866C58.6337 11.6401 59.7042 11.7559 60.3566 12.4174C61.7951 13.8564 61.2766 17.3959 58.8512 17.3959Z" fill="white"/>
    <path d="M36.2027 10.1017H33.9446V19.0663H36.2027V10.1017Z" fill="white"/>
    <path d="M31.9207 14.8655C31.5695 13.3108 30.0808 12.5499 28.7092 11.9876C27.806 11.6072 26.0162 11.1441 26.0664 9.90358C26.1165 8.66309 27.5718 8.34884 28.5754 8.51424C29.1441 8.61347 29.6961 8.82849 30.1812 9.14275L31.6866 7.65417C30.3317 6.36406 27.9732 6.04981 26.2671 6.66178C24.4271 7.32337 23.1559 9.35777 24.009 11.2433C24.6279 12.6326 26.2336 13.2115 27.5383 13.7739C28.5419 14.2039 30.315 14.9648 29.5121 16.3706C28.9434 17.3796 27.4881 17.2638 26.5514 16.933C26.0329 16.7511 25.5144 16.4699 25.0628 16.1391L23.5573 17.6277C24.8788 18.9508 27.0365 19.4967 28.843 19.1659C30.9004 18.802 32.3891 16.9495 31.9207 14.8655Z" fill="white"/>
</svg>
